<?xml version="1.0" encoding="UTF-8"?><svg id="a" xmlns="http://www.w3.org/2000/svg" viewBox="0 0 135 46"><g id="b"><g><path d="M64.1469,2.7778c2.5278,0,4.4468,.377,6.0913,2.1758,1.2183,1.3047,1.7969,4.0605,1.7969,7.9189s-.5786,6.6133-1.7969,7.9189c-1.6445,1.7979-3.5635,2.1748-6.0913,2.1748h-6.0308c-1.0659,0-1.7358-.6094-1.7358-1.7109V4.4888c0-1.1016,.6699-1.7109,1.7358-1.7109h6.0308Zm0,16.5625c.8223,0,2.3755-.0283,3.1675-1.4795,.5786-1.0732,.6089-2.7549,.6089-4.9883,0-2.2051-.0303-3.8584-.6089-4.9316-.792-1.5088-2.3452-1.5371-3.1675-1.5371h-3.5332c-.2129,0-.2739,.0576-.2739,.2607v12.415c0,.2031,.061,.2607,.2739,.2607h3.5332Z"/><path d="M85.3412,5.3013l5.8174,15.3154c.1211,.29,.1826,.5801,.1826,.8125,0,.9863-1.0664,1.6533-2.1016,1.6533-.6699,0-1.3711-.29-1.7061-1.2188l-.9443-2.5234c-.0908-.2607-.2129-.4053-.4561-.4053h-7.6143c-.2441,0-.3662,.1445-.457,.4053l-.9443,2.5234c-.335,.9287-1.0352,1.2188-1.7051,1.2188-.9443,0-2.1021-.5801-2.1021-1.6533,0-.2324,.0605-.5225,.1831-.8125l5.8174-15.3154c.7607-2.0303,1.4307-2.6396,3.0146-2.6396s2.2539,.6094,3.0156,2.6396Zm-.5791,9.9785c.1826,0,.2744-.0576,.2744-.1738,0-.0586,0-.1748-.0918-.4062l-2.1924-6.4111c-.1523-.4053-.2139-.9277-.4268-.9277s-.2744,.5225-.4268,.9277l-2.1924,6.4111c-.0918,.2314-.0918,.3477-.0918,.4062,0,.1162,.0918,.1738,.2744,.1738h4.873Z"/><path d="M100.2299,16.353l-3.9287,5.8877c-.4268,.6387-.9443,.8418-1.4316,.8418-.9443,0-2.1621-.7832-2.1621-1.8271,0-.3193,.1221-.6963,.3955-1.1025l4.9648-7.1064c.0605-.0869,.1221-.1738,.1221-.2617,0-.1152-.0615-.1738-.1221-.2607l-4.873-6.9326c-.3047-.4062-.4268-.7832-.4268-1.1025,0-.957,1.127-1.8564,2.1621-1.8564,.4883,0,1.0059,.2324,1.4316,.8701l3.8682,5.8311c.0615,.0869,.0918,.1162,.1523,.1162s.0918-.0293,.1523-.1162l3.8682-5.8311c.4258-.667,.9746-.8408,1.4619-.8408,.9443,0,2.1318,.8125,2.1318,1.8271,0,.3193-.1221,.6963-.4268,1.1025l-4.873,6.9326c-.0605,.0869-.1211,.1455-.1211,.2607,0,.0879,.0605,.1748,.1211,.2617l4.9648,7.1064c.2744,.4062,.3955,.7832,.3955,1.1025,0,.957-1.127,1.8271-2.1621,1.8271-.4873,0-1.0049-.2031-1.4316-.8418l-3.9287-5.8877c-.0605-.1162-.0918-.1455-.1523-.1455s-.0908,.0293-.1523,.1455Z"/><path d="M56.1566,28.9038c.7002-1.1602,1.9004-1.9404,4.0405-1.9404s3.3408,.7803,4.041,1.9404c.8003,1.3799,.8804,3.2607,.8804,5.1006,0,1.8408-.0801,3.7217-.8804,5.1016-.7002,1.1602-1.9004,1.9404-4.041,1.9404s-3.3403-.7803-4.0405-1.9404c-.8003-1.3799-.8804-3.2607-.8804-5.1016,0-1.8398,.0801-3.7207,.8804-5.1006Zm.9399,9.6621c.5005,.9199,1.4204,1.4805,3.1006,1.4805s2.6006-.5801,3.1011-1.4805c.6602-1.1807,.7002-2.8809,.7002-4.5615,0-1.6797-.0601-3.4004-.7002-4.5605-.5005-.9199-1.4204-1.4805-3.1011-1.4805s-2.6001,.5801-3.1006,1.4805c-.6602,1.1807-.7002,2.8809-.7002,4.5605,0,1.6807,.0601,3.4014,.7002,4.5615Z"/><path d="M75.5385,36.1655c0,2.7607-.5605,4.8809-3.7017,4.8809-.7202,0-1.6602-.0996-2.5605-.8604-.02-.0195-.1597-.1396-.1997-.1396-.0801,0-.1001,.0596-.1001,.1201v4.7607c0,.3203-.2603,.4404-.5,.4404-.2603,0-.5005-.1201-.5005-.4404v-13.2031c0-.3203,.2402-.4395,.5005-.4395,.2397,0,.5,.1191,.5,.4395v.4199c0,.1201,.04,.1406,.1001,.1406,.04,0,.1396-.0801,.1997-.1406,.9004-.7598,1.8403-.8594,2.5605-.8594,3.1206,0,3.7017,2.1201,3.7017,4.8809Zm-1.001,0c0-2.3203-.2197-3.9609-2.8403-3.9609-2.4409,0-2.7207,1.4404-2.7207,3.9609,0,2.1602,.0601,3.9609,2.7207,3.9609,2.6206,0,2.8403-1.6406,2.8403-3.9609Z"/><path d="M82.1566,40.5864c0,.2197-.1201,.46-.4404,.46-1.7803,0-2.6797-.9805-2.6797-2.7002v-5.9414c0-.1006-.0801-.1201-.1807-.1201h-1.3398c-.3008,0-.4004-.2402-.4004-.46,0-.2402,.0996-.46,.4004-.46h1.3398c.1006,0,.1807-.04,.1807-.1406v-2.6406c0-.3203,.2393-.4395,.5-.4395,.2393,0,.5,.1191,.5,.4395v2.6006c0,.1406,.0596,.1807,.1797,.1807h1.54c.3008,0,.4004,.2197,.4004,.46,0,.2197-.0996,.46-.4004,.46h-1.54c-.1201,0-.1797,.04-.1797,.1797v6.1016c0,.9805,.5801,1.5605,1.6797,1.5605,.3203,0,.4404,.2197,.4404,.46Z"/><path d="M84.8363,28.5034c-.4609,0-.7803-.3203-.7803-.7803,0-.4395,.3193-.7598,.7803-.7598,.4395,0,.7598,.3203,.7598,.7598,0,.46-.3203,.7803-.7598,.7803Zm-.501,3.2207c0-.3203,.2402-.4395,.501-.4395,.2393,0,.5,.1191,.5,.4395v8.8818c0,.3203-.2607,.4404-.5,.4404-.2607,0-.501-.1201-.501-.4404v-8.8818Z"/><path d="M101.6186,35.0454c0-2.001-.8398-2.8408-2.6406-2.8408-1.7002,0-2.8203,.5996-2.8203,2.8408v5.5605c0,.3203-.2598,.4404-.5,.4404-.2607,0-.5-.1201-.5-.4404v-5.6406c0-2.0605-.8604-2.7607-2.6406-2.7607-2.0811,0-2.8213,1.1396-2.8213,2.5801v5.8213c0,.3203-.2598,.4404-.5,.4404-.2598,0-.5-.1201-.5-.4404v-8.8818c0-.3203,.2402-.4395,.5-.4395,.2207,0,.5,.0996,.5,.3994v.46c0,.0801,.0205,.1406,.1006,.1406,.04,0,.2002-.1406,.2002-.1406,.7998-.7002,1.7598-.8594,2.5205-.8594,1.2002,0,2.1406,.2598,2.8799,1.0996,.1201,.1406,.2002,.1602,.2607,.1602,.0801,0,.1396-.0195,.2402-.1201,.9795-.8799,2.0801-1.1396,3.0801-1.1396,2.7207,0,3.6406,1.5596,3.6406,3.7607v5.5605c0,.3203-.2598,.4404-.5,.4404-.2598,0-.5-.1201-.5-.4404v-5.5605Z"/><path d="M106.3764,28.5034c-.46,0-.7803-.3203-.7803-.7803,0-.4395,.3203-.7598,.7803-.7598,.4395,0,.7598,.3203,.7598,.7598,0,.46-.3203,.7803-.7598,.7803Zm-.5,3.2207c0-.3203,.2393-.4395,.5-.4395,.2402,0,.5,.1191,.5,.4395v8.8818c0,.3203-.2598,.4404-.5,.4404-.2607,0-.5-.1201-.5-.4404v-8.8818Z"/><path d="M116.5766,40.0464c.3008,0,.4004,.2197,.4004,.46,0,.2197-.0996,.46-.4004,.46h-6.5215c-.46,0-.5996-.2598-.5996-.5,0-.1201,.04-.2803,.1396-.4199l5.541-7.5215s.0605-.0801,.0605-.1201c0-.1201-.1602-.1201-.1602-.1201h-4.8008c-.3008,0-.4004-.2402-.4004-.46,0-.2402,.0996-.46,.4004-.46h5.7207c.2998,0,.6006,.1396,.6006,.5596,0,.2402-.1006,.3799-.4199,.8203l-5.2412,7.1016s-.04,.0596-.04,.0996c0,.1006,.1602,.1006,.1602,.1006h5.5605Z"/><path d="M125.6771,39.1655c.2793,0,.5,.2803,.5,.54,0,.1201-.1201,.2803-.2803,.3809-.8203,.54-1.9404,.96-3.1611,.96-3.3008,0-3.9805-1.7803-3.9805-4.8809,0-2.7412,.54-4.8809,3.8408-4.8809,2.7207,0,3.7607,1.5,3.7607,4.1807,0,.5996-.1201,1.1797-.9404,1.1797h-5.501c-.1201,0-.1602,.0605-.1602,.1406,.0605,2.1807,.5205,3.3408,3.1211,3.3408,.7197,0,1.46-.2207,2.2402-.6602,.2402-.1406,.4199-.3008,.5605-.3008Zm-3.0811-6.9814c-2.2607,0-2.8408,1.2803-2.8408,3.3613,0,.0996,.0205,.1797,.1602,.1797h5.3613c.0801,0,.1396-.0195,.1396-.1201,0-1.9805-.4395-3.4209-2.8203-3.4209Z"/><path d="M133.3959,32.3647c-.2402,0-.1396-.0205-.6602-.0205-2.001,0-2.5205,1.1807-2.5205,3.6611v4.6006c0,.3203-.2598,.4404-.5,.4404-.2598,0-.5-.1201-.5-.4404v-8.8818c0-.3203,.2402-.4395,.5-.4395,.2402,0,.5,.1191,.5,.4395v.4199c0,.0801,.0195,.1406,.0996,.1406,.04,0,.1406-.1201,.2002-.1807,.8799-.7793,1.9404-.8193,2.3604-.8193,.6201,0,1.0205,0,1.0205,.5801,0,.2793-.0996,.5-.5,.5Z"/></g><g><path d="M15.0359,16.9634v12.5359c0,1.0718,.5718,2.0622,1.5,2.5981l10.8564,6.2679c.9282,.5359,2.0718,.5359,3,0l10.8564-6.2679c.9282-.5359,1.5-1.5263,1.5-2.5981v-12.5359c0-1.0718-.5718-2.0622-1.5-2.5981l-10.8564-6.2679c-.9282-.5359-2.0718-.5359-3,0l-10.8564,6.2679c-.9282,.5359-1.5,1.5263-1.5,2.5981Z" style="fill:#0fce73;"/><polygon points="15.0359 15.2314 15.0359 31.2314 28.8923 39.2314 42.7487 31.2314 42.7487 15.2314 28.8923 23.4169 15.0359 15.2314" style="fill:#0db565;"/><polygon points="15.0359 15.2314 15.0359 31.2314 28.8923 39.2314 42.7487 31.2314 42.7487 15.2314 28.8923 23.4169 15.0359 15.2314" style="fill:#0db565;"/><polygon points="28.8923 39.2314 42.7487 31.2314 42.7487 15.2314 28.8923 23.4169 28.8923 39.2314" style="fill:#0ca85e;"/><path d="M30.1123,23.2695c-.0104-.0858-.0225-.1673-.0502-.249-.0262-.0771-.0621-.1448-.1021-.2144-.039-.0685-.0784-.1329-.1305-.1937-.057-.0664-.1218-.1191-.1914-.1723-.0399-.0306-.0659-.073-.1103-.0993l-5.4995-3.249c-.5933-.3516-1.3604-.1533-1.7119,.4404-.3511,.5947-.1538,1.3604,.4404,1.7119l4.8853,2.8861v4.6012c0,.6904,.5596,1.25,1.25,1.25s1.25-.5596,1.25-1.25v-5.3145c0-.0523-.0236-.0969-.0298-.1475Z"/><g><path d="M41.8735,13.2822l-10.8564-6.2666c-1.3105-.7578-2.9395-.7568-4.25-.001l-2.1194,1.2238L16.0762,3.29c-.5962-.3438-1.3628-.1406-1.7075,.458-.3452,.5977-.1401,1.3623,.4575,1.708l7.3207,4.2263-6.2362,3.6008c-1.311,.7568-2.125,2.167-2.125,3.6807v6.9937l-7.231-4.1753c-.5962-.3467-1.3618-.1416-1.7075,.457-.3452,.5977-.1406,1.3623,.4575,1.707l8.481,4.8971v2.6556c0,1.5137,.814,2.9238,2.125,3.6816l10.8564,6.2666c.6553,.3789,1.3901,.5684,2.125,.5684s1.4697-.1895,2.125-.5674l10.8564-6.2686c1.311-.7568,2.125-2.167,2.125-3.6807v-12.5352c0-1.5137-.814-2.9238-2.125-3.6816Zm-.375,16.2168c0,.623-.3354,1.2041-.875,1.5156l-10.8564,6.2686c-.5396,.3105-1.2095,.3125-1.75-.001l-10.8564-6.2666c-.5396-.3125-.875-.8936-.875-1.5166v-12.5352c0-.623,.3354-1.2041,.875-1.5156l10.8564-6.2686c.27-.1553,.5723-.2334,.875-.2334,.3022,0,.605,.0781,.875,.2344l10.8564,6.2666c.5396,.3125,.875,.8936,.875,1.5166v12.5352Z"/><path d="M10.8706,13.9736c.4316,0,.8521-.2236,1.0835-.625,.3452-.5977,.1401-1.3623-.4575-1.707l-6.1343-3.542c-.5972-.3457-1.3623-.1416-1.7075,.457-.3452,.5977-.1401,1.3623,.4575,1.707l6.1343,3.542c.1968,.1143,.4116,.168,.624,.168Z"/></g></g></g></svg>